<svg id="Layer_1" data-name="Layer 1" xmlns="http://www.w3.org/2000/svg" viewBox="0 0 141.79 35.2"><defs><style>.cls-1{fill:#ee2448;}</style></defs><title>LOGO MOCA</title><path class="cls-1" d="M109.69,52.29a15.58,15.58,0,1,1,2.51-23.15V26.32A17.59,17.59,0,1,0,108.4,55.4Z" transform="translate(-0.99 -22)"/><path class="cls-1" d="M39.17,53.28,35.71,22H34.58l-14,30.31L6.72,22H5.62L2.22,53.25a2,2,0,1,0,2.7,1.82,1.94,1.94,0,0,0-.72-1.51l2.86-26L20.61,57.17,34.23,27.62l2.95,25.91a2,2,0,1,0,2-.26Z" transform="translate(-0.99 -22)"/><path class="cls-1" d="M137.7,25.4h-.62V22.77h-.64v-.54h1.89v.54h-.64Z" transform="translate(-0.99 -22)"/><path class="cls-1" d="M141.78,23.44h0l-.72,2h-.22l-.69-2h0l-.29,2h-.63l.54-3.26h.43l.79,2.09.75-2.09h.44l.48,3.26H142Z" transform="translate(-0.99 -22)"/><path class="cls-1" d="M141.1,53.21,128.2,22.1H127L114.09,53.22a2,2,0,1,0,2.34,1.93A2,2,0,0,0,116,53.9L127.6,26l11.64,28a1.94,1.94,0,0,0-.37,1.14,2,2,0,1,0,2.23-1.94Z" transform="translate(-0.99 -22)"/><path class="cls-1" d="M76.09,38.25c0,.44.06.89.06,1.35a15.62,15.62,0,1,1-4.47-10.9,5.64,5.64,0,0,1,1.68-1.17,17.59,17.59,0,1,0,4.8,12.07,17.12,17.12,0,0,0-.1-1.86A5.66,5.66,0,0,1,76.09,38.25Z" transform="translate(-0.99 -22)"/><circle class="cls-1" cx="74.68" cy="10.64" r="2.58"/></svg>